<svg width="24" height="21" viewBox="0 0 24 21" fill="none" xmlns="http://www.w3.org/2000/svg">
<path d="M0 18.75C0 19.9922 0.895833 21 2 21H22C23.1042 21 24 19.9922 24 18.75V10.5H0V18.75ZM8 15.5625C8 15.2531 8.225 15 8.5 15H14.1667C14.4417 15 14.6667 15.2531 14.6667 15.5625V17.4375C14.6667 17.7469 14.4417 18 14.1667 18H8.5C8.225 18 8 17.7469 8 17.4375V15.5625ZM2.66667 15.5625C2.66667 15.2531 2.89167 15 3.16667 15H6.16667C6.44167 15 6.66667 15.2531 6.66667 15.5625V17.4375C6.66667 17.7469 6.44167 18 6.16667 18H3.16667C2.89167 18 2.66667 17.7469 2.66667 17.4375V15.5625ZM24 2.25V4.5H0V2.25C0 1.00781 0.895833 0 2 0H22C23.1042 0 24 1.00781 24 2.25Z" fill="#828282"/>
</svg>
