<svg width="24" height="24" viewBox="0 0 24 24" fill="none" xmlns="http://www.w3.org/2000/svg">
<path d="M23.4798 7.56919C23.4798 6.54734 23.2789 5.55706 22.8856 4.62131C22.5039 3.72001 21.9585 2.91056 21.2639 2.21593C20.5692 1.5213 19.7598 0.975929 18.8585 0.594169C17.9256 0.198056 16.9325 0 15.9106 0C14.8887 0 13.8985 0.200927 12.9627 0.594169C12.0615 0.975929 11.252 1.5213 10.5573 2.21593C9.86272 2.91056 9.31735 3.72001 8.93558 4.62131C8.53947 5.55418 8.34142 6.54734 8.34142 7.56919C8.34142 8.84651 8.6629 10.098 9.27429 11.2117L0.212505 20.2649C0.00296695 20.4744 -0.0630518 20.793 0.0661153 21.0944C0.0919487 21.1576 0.135004 21.215 0.183801 21.2637L2.21316 23.2931C2.26195 23.3419 2.31936 23.3821 2.38251 23.4108C2.6839 23.54 3.00251 23.4768 3.21205 23.2644L4.46641 22.01L6.27187 23.8155C6.32067 23.8643 6.37808 23.9045 6.4412 23.9332C6.74259 24.0624 7.06123 23.9992 7.27074 23.7868L9.27139 21.7862C9.32019 21.7374 9.36037 21.6799 9.38908 21.6168C9.51824 21.3154 9.45509 20.9968 9.24269 20.7873L7.46592 19.0105L12.2652 14.2084C13.376 14.8198 14.6304 15.1413 15.9077 15.1413C16.9296 15.1413 17.9198 14.9403 18.8556 14.5471C19.7569 14.1653 20.5663 13.62 21.261 12.9253C21.9556 12.2307 22.5009 11.4213 22.8827 10.5199C23.2789 9.58133 23.4798 8.59105 23.4798 7.56919ZM18.5629 10.2243C17.8539 10.9333 16.9095 11.3236 15.9078 11.3236C14.906 11.3236 13.9616 10.9333 13.2527 10.2243C12.5437 9.51531 12.1504 8.57095 12.1504 7.56919C12.1504 6.56456 12.5408 5.62307 13.2498 4.91409C13.9588 4.20511 14.9032 3.81473 15.9049 3.81473C16.9067 3.81473 17.851 4.20511 18.56 4.91409C19.269 5.62307 19.6593 6.56743 19.6593 7.56919C19.6651 8.57095 19.2747 9.51531 18.5629 10.2243Z" fill="#828282"/>
</svg>
