<svg width="24" height="24" viewBox="0 0 24 24" fill="none" xmlns="http://www.w3.org/2000/svg">
<path d="M6.50203 6.42188H6.20109L5.63873 9.23438H7.06439L6.50203 6.42188Z" fill="#828282"/>
<path d="M17.8769 12.0469C18.1805 12.8625 18.5843 13.5226 19.0312 14.0844C19.4781 13.5226 19.9288 12.8624 20.2324 12.0469H17.8769Z" fill="#828282"/>
<path d="M21.8907 4.26562H13.1586L14.9794 18.8756C15.0116 19.4731 14.8482 20.0357 14.4582 20.4762L11.3749 24H21.8907C23.0538 24 24 23.0538 24 21.8906V6.42188C24 5.25872 23.0538 4.26562 21.8907 4.26562ZM21.8907 12.0469H21.7029C21.3028 13.3305 20.6683 14.3348 20.009 15.1267C20.5255 15.5989 21.0778 15.9862 21.627 16.4201C21.9298 16.6625 21.9792 17.1047 21.7362 17.4082C21.4942 17.7113 21.0503 17.7604 20.7481 17.5174C20.1514 17.0464 19.5913 16.6522 19.0313 16.1383C18.4712 16.6522 17.958 17.0464 17.3614 17.5174C17.0592 17.7604 16.6152 17.7113 16.3733 17.4082C16.1302 17.1047 16.1796 16.6625 16.4825 16.4201C17.0316 15.9862 17.537 15.5989 18.0536 15.1267C17.3942 14.3349 16.8066 13.3305 16.4066 12.0469H16.2188C15.8301 12.0469 15.5157 11.7324 15.5157 11.3438C15.5157 10.9551 15.8301 10.6406 16.2188 10.6406H18.3282V9.9375C18.3282 9.54886 18.6426 9.23438 19.0313 9.23438C19.4199 9.23438 19.7344 9.54886 19.7344 9.9375V10.6406H21.8907C22.2793 10.6406 22.5938 10.9551 22.5938 11.3438C22.5938 11.7324 22.2793 12.0469 21.8907 12.0469Z" fill="#828282"/>
<path d="M11.4452 1.84777C11.314 0.794437 10.4138 0 9.35231 0H2.10938C0.946219 0 0 0.946219 0 2.10938V17.6719C0 18.835 0.946219 19.7812 2.10938 19.7812C6.31266 19.7812 9.33642 19.7812 13.1977 19.7812C13.4028 19.5468 13.5748 19.4 13.582 19.0939C13.5838 19.0172 11.4547 1.92389 11.4452 1.84777ZM8.62238 13.4394C8.24953 13.5161 7.87186 13.2741 7.79498 12.888L7.34559 10.6406H5.35758L4.90819 12.888C4.83267 13.2684 4.46597 13.5183 4.0808 13.4394C3.70041 13.3632 3.45319 12.9931 3.52941 12.612L4.93561 5.58075C5.00152 5.25253 5.28994 5.01562 5.625 5.01562H7.07812C7.41319 5.01562 7.70161 5.25253 7.76752 5.58075L9.17377 12.612C9.24998 12.9931 9.00281 13.3632 8.62238 13.4394Z" fill="#828282"/>
<path d="M8.21537 21.1875L8.33603 22.1522C8.41647 22.7983 8.84575 23.4571 9.55187 23.7861C10.8844 22.3192 10.0782 23.2066 11.9125 21.1875H8.21537Z" fill="#828282"/>
</svg>
