<svg width="25" height="25" viewBox="0 0 25 25" fill="none" xmlns="http://www.w3.org/2000/svg">
<path d="M11.4583 15.625C9.73542 15.625 8.33333 14.2229 8.33333 12.5C8.33333 10.7771 9.73542 9.375 11.4583 9.375H16.6667V2.86458C16.6667 1.28438 15.3823 0 13.8021 0H2.86458C1.28438 0 0 1.28438 0 2.86458V22.1354C0 23.7156 1.28438 25 2.86458 25H13.8021C15.3823 25 16.6667 23.7156 16.6667 22.1354V15.625H11.4583Z" fill="#828282"/>
<path d="M19.3927 17.6291C19.0042 17.4676 18.75 17.0874 18.75 16.6666V13.5416H11.4583C10.8833 13.5416 10.4167 13.0749 10.4167 12.4999C10.4167 11.925 10.8833 11.4583 11.4583 11.4583H18.75V8.33329C18.75 7.91246 19.0042 7.53225 19.3927 7.37079C19.7823 7.20933 20.2302 7.29891 20.5281 7.59683L24.6948 11.7635C25.1021 12.1708 25.1021 12.8291 24.6948 13.2364L20.5281 17.4031C20.2302 17.701 19.7823 17.7906 19.3927 17.6291Z" fill="#828282"/>
</svg>
