<svg width="23" height="23" viewBox="0 0 23 23" fill="none" xmlns="http://www.w3.org/2000/svg">
<path d="M14.9941 0.229527C14.7414 0.464489 14.6545 0.82597 14.773 1.15025C15.1939 2.30243 15.4075 3.51988 15.4075 4.76892C15.4075 7.61128 14.3006 10.2838 12.2908 12.2942C10.2808 14.305 7.60755 15.4122 4.76413 15.4122C3.51808 15.4122 2.3022 15.1989 1.1502 14.7777C0.826095 14.6593 0.464789 14.746 0.229651 14.9988C-0.00548764 15.2517 -0.066027 15.6186 0.0757579 15.9336C0.996307 17.9805 2.47189 19.7251 4.34264 20.9785C6.25989 22.263 8.49704 22.9614 10.8126 22.9984C12.4596 23.0248 14.0626 22.7191 15.577 22.09C17.0361 21.4839 18.3465 20.6067 19.4719 19.4829C20.597 18.3592 21.4758 17.0501 22.084 15.5919C22.692 14.1336 23 12.5925 22.9998 11.0087C22.9998 10.949 22.9995 10.889 22.9986 10.8292C22.9647 8.51095 22.2667 6.26994 20.9802 4.34883C19.7256 2.47527 17.9787 0.997586 15.9288 0.0758095C15.6138 -0.0659752 15.2469 -0.00561144 14.9941 0.229527Z" fill="#828282"/>
</svg>
