<svg width="20" height="24" viewBox="0 0 20 24" fill="none" xmlns="http://www.w3.org/2000/svg">
<path d="M19.9283 20.243L18.2113 17.381C17.4183 16.06 16.9993 14.547 16.9993 13.007V10.5C16.9993 7.335 14.8873 4.65802 11.9993 3.795V2.00002C11.9993 0.897 11.1023 0 9.99927 0C8.89626 0 7.99926 0.897 7.99926 2.00002V3.795C5.11129 4.65802 2.99929 7.335 2.99929 10.5V13.007C2.99929 14.547 2.58027 16.059 1.78827 17.38L0.0712889 20.242C-0.0217111 20.397 -0.0237266 20.589 0.065289 20.746C0.154305 20.903 0.319305 21 0.499305 21H19.4993C19.6793 21 19.8453 20.9031 19.9343 20.7471C20.0233 20.591 20.0203 20.397 19.9283 20.243Z" fill="#828282"/>
<path d="M6.8503 22C7.4143 23.178 8.6083 24 9.99927 24C11.3902 24 12.5843 23.178 13.1483 22H6.8503Z" fill="#828282"/>
</svg>
