<svg width="25" height="24" viewBox="0 0 25 24" fill="none" xmlns="http://www.w3.org/2000/svg">
<path d="M11.2727 11.1013L0.330179 6.4939C0.173416 6.42786 0 6.543 0 6.71313V19.0306C0 19.3418 0.189496 19.6218 0.478522 19.7373L11.0921 23.9827C11.2483 24.0453 11.4183 23.9302 11.4183 23.7619V11.3205C11.4183 11.2248 11.3609 11.1384 11.2727 11.1013Z" fill="#828282"/>
<path d="M12.2717 9.79223L22.8486 5.33881C23.0387 5.25878 23.0438 4.99121 22.8569 4.90401L12.5013 0.0714001C12.2973 -0.0238 12.0616 -0.0238 11.8575 0.0714001L1.50191 4.90401C1.31499 4.99121 1.32008 5.25878 1.51019 5.33881L12.0871 9.79223C12.1461 9.81711 12.2127 9.81711 12.2717 9.79223Z" fill="#828282"/>
<path d="M12.9407 11.3205V23.7619C12.9407 23.9302 13.1107 24.0453 13.267 23.9827L23.8805 19.7373C24.1695 19.6217 24.3591 19.3418 24.3591 19.0306V6.71313C24.3591 6.543 24.1856 6.42786 24.0289 6.4939L13.0863 11.1013C12.9981 11.1384 12.9407 11.2248 12.9407 11.3205Z" fill="#828282"/>
</svg>
