<svg width="20" height="24" viewBox="0 0 20 24" fill="none" xmlns="http://www.w3.org/2000/svg">
<path d="M10 12C13.1562 12 15.7143 9.31406 15.7143 6C15.7143 2.68594 13.1562 0 10 0C6.84375 0 4.28571 2.68594 4.28571 6C4.28571 9.31406 6.84375 12 10 12ZM14 13.5H13.2545C12.2634 13.9781 11.1607 14.25 10 14.25C8.83929 14.25 7.74107 13.9781 6.74554 13.5H6C2.6875 13.5 0 16.3219 0 19.8V21.75C0 22.9922 0.959822 24 2.14286 24H17.8571C19.0402 24 20 22.9922 20 21.75V19.8C20 16.3219 17.3125 13.5 14 13.5Z" fill="#828282"/>
</svg>