<svg width="273" height="241" viewBox="0 0 273 241" fill="none" xmlns="http://www.w3.org/2000/svg">
<path d="M229.555 50.1582C237.464 50.9271 254.007 48.3786 256.907 32.0331C259.807 15.6876 267.563 11.1618 271.078 10.9421" stroke="#F3603F" stroke-width="3" stroke-linecap="round"/>
<circle cx="159.319" cy="116.831" r="79.0761" fill="#53B175"/>
<g filter="url(#filter0_d_273_2038)">
<circle cx="159.319" cy="116.831" r="68.1416" stroke="white" stroke-opacity="0.7" stroke-width="2"/>
</g>
<path d="M194.46 99.5319C194.46 101.685 193.615 103.764 192.079 105.249L156.362 139.848C154.749 141.333 152.598 142.224 150.371 142.224C148.143 142.224 145.993 141.333 144.457 139.848L126.56 122.548C125.024 121.063 124.179 118.985 124.179 116.831C124.179 114.678 125.1 112.674 126.637 111.114C128.25 109.629 130.324 108.813 132.551 108.738C134.779 108.738 136.852 109.555 138.465 111.04L150.371 122.548L180.173 93.7406C181.786 92.2557 183.86 91.439 186.088 91.439C188.315 91.5132 190.389 92.3299 192.002 93.8891C193.538 95.374 194.46 97.3787 194.46 99.5319Z" fill="white"/>
<path d="M218.526 195.908C225.908 198.04 240.18 206.144 238.212 221.498" stroke="#F7B23B" stroke-width="3" stroke-linecap="round" stroke-linejoin="round"/>
<path d="M2 174.24C13.3283 178.506 37.7503 181.566 44.8122 159.675M44.8122 159.675C45.8421 153.643 44.8123 141.711 32.4542 142.241C30.1002 148.052 29.2762 159.675 44.8122 159.675ZM44.8122 159.675C49.9615 160.631 61.9372 159.719 68.6458 148.42" stroke="#6E89FA" stroke-width="3" stroke-linecap="round" stroke-linejoin="round"/>
<circle cx="181.771" cy="232.727" r="7.57962" fill="#637BFE"/>
<circle cx="253.425" cy="112.7" r="7.07962" stroke="#C05EFD"/>
<circle cx="133.106" cy="8.30033" r="8.30033" fill="#53B175"/>
<circle cx="156.673" cy="22.3101" r="4.38348" fill="#F3603F"/>
<circle cx="60.0587" cy="86.6853" r="7.18199" stroke="#F7B23B"/>
<circle cx="77.7038" cy="207.816" r="7.94695" stroke="#53B175"/>
<circle r="4.03543" transform="matrix(-1 0 0 1 158.203 224.035)" fill="#53B175"/>
<defs>
<filter id="filter0_d_273_2038" x="86.1777" y="46.6898" width="146.283" height="146.283" filterUnits="userSpaceOnUse" color-interpolation-filters="sRGB">
<feFlood flood-opacity="0" result="BackgroundImageFix"/>
<feColorMatrix in="SourceAlpha" type="matrix" values="0 0 0 0 0 0 0 0 0 0 0 0 0 0 0 0 0 0 127 0" result="hardAlpha"/>
<feOffset dy="3"/>
<feGaussianBlur stdDeviation="2"/>
<feColorMatrix type="matrix" values="0 0 0 0 0 0 0 0 0 0 0 0 0 0 0 0 0 0 0.12 0"/>
<feBlend mode="normal" in2="BackgroundImageFix" result="effect1_dropShadow_273_2038"/>
<feBlend mode="normal" in="SourceGraphic" in2="effect1_dropShadow_273_2038" result="shape"/>
</filter>
</defs>
</svg>
