<svg width="240" height="200" viewBox="0 0 240 200" fill="none" xmlns="http://www.w3.org/2000/svg">
<g clip-path="url(#clip0_273_2142)">
<path d="M11.1327 190.579C14.4559 196.742 21.509 199.388 21.509 199.388C21.509 199.388 23.1741 192.041 19.8508 185.878C16.5276 179.715 9.4745 177.069 9.4745 177.069C9.4745 177.069 7.80944 184.416 11.1327 190.579Z" fill="#2F2E41"/>
<path d="M13.4167 188.551C19.4165 192.161 21.7272 199.331 21.7272 199.331C21.7272 199.331 14.3103 200.648 8.31052 197.038C2.31072 193.429 0 186.259 0 186.259C0 186.259 7.41689 184.942 13.4167 188.551Z" fill="#52CC6D"/>
<path d="M147.933 9.60144H110.498V10.1362H147.933V9.60144Z" fill="#F2F2F2"/>
<path d="M137.772 10.0025H137.237V14.9492H137.772V10.0025Z" fill="#F2F2F2"/>
<path d="M121.461 10.0025H120.927V14.9492H121.461V10.0025Z" fill="#F2F2F2"/>
<path d="M166.918 35.2709H129.483V35.8057H166.918V35.2709Z" fill="#F2F2F2"/>
<path d="M140.179 30.4578H139.644V35.4045H140.179V30.4578Z" fill="#F2F2F2"/>
<path d="M156.489 30.4578H155.955V35.4045H156.489V30.4578Z" fill="#F2F2F2"/>
<path d="M216.652 47.3034H179.218V47.8382H216.652V47.3034Z" fill="#F2F2F2"/>
<path d="M189.913 42.4904H189.378V47.4371H189.913V42.4904Z" fill="#F2F2F2"/>
<path d="M206.224 42.4904H205.689V47.4371H206.224V42.4904Z" fill="#F2F2F2"/>
<path d="M212.909 171.372H175.474V171.907H212.909V171.372Z" fill="#F2F2F2"/>
<path d="M186.17 166.559H185.635V171.506H186.17V166.559Z" fill="#F2F2F2"/>
<path d="M202.481 166.559H201.946V171.506H202.481V166.559Z" fill="#F2F2F2"/>
<path d="M149.003 85.5402H111.568V86.0749H149.003V85.5402Z" fill="#F2F2F2"/>
<path d="M122.264 80.7271H121.729V85.6738H122.264V80.7271Z" fill="#F2F2F2"/>
<path d="M138.574 80.7271H138.04V85.6738H138.574V80.7271Z" fill="#F2F2F2"/>
<path d="M160.768 149.981H123.333V150.516H160.768V149.981Z" fill="#F2F2F2"/>
<path d="M134.029 145.168H133.494V150.115H134.029V145.168Z" fill="#F2F2F2"/>
<path d="M150.339 145.168H149.805V150.115H150.339V145.168Z" fill="#F2F2F2"/>
<path d="M220.663 130.462H183.229V130.996H220.663V130.462Z" fill="#F2F2F2"/>
<path d="M193.924 125.649H193.389V130.595H193.924V125.649Z" fill="#F2F2F2"/>
<path d="M210.235 125.649H209.7V130.595H210.235V125.649Z" fill="#F2F2F2"/>
<path d="M96.8112 187.757H33.4971V187.302H96.3556V165.21H38.8197L36.0247 159.387L36.4354 159.19L39.1064 164.754H96.8112V187.757Z" fill="#2F2E41"/>
<path d="M41.9236 198.917C44.565 198.917 46.7063 196.775 46.7063 194.134C46.7063 191.492 44.565 189.351 41.9236 189.351C39.2822 189.351 37.1409 191.492 37.1409 194.134C37.1409 196.775 39.2822 198.917 41.9236 198.917Z" fill="#3F3D56"/>
<path d="M89.0676 198.917C91.7091 198.917 93.8504 196.775 93.8504 194.134C93.8504 191.492 91.7091 189.351 89.0676 189.351C86.4262 189.351 84.2849 191.492 84.2849 194.134C84.2849 196.775 86.4262 198.917 89.0676 198.917Z" fill="#3F3D56"/>
<path d="M144.638 95.5185C146.274 95.5185 147.599 94.193 147.599 92.5578C147.599 90.9226 146.274 89.597 144.638 89.597C143.003 89.597 141.678 90.9226 141.678 92.5578C141.678 94.193 143.003 95.5185 144.638 95.5185Z" fill="#3F3D56"/>
<path d="M103.583 157.694H32.4174L17.0189 107.362H119.441L119.348 107.658L103.583 157.694ZM32.7544 157.239H103.249L118.82 107.817H17.6346L32.7544 157.239Z" fill="#2F2E41"/>
<path d="M98.0279 155.075H35.5207L21.9956 110.436H111.957L111.875 110.699L98.0279 155.075Z" fill="#F2F2F2"/>
<path d="M120.717 102.865L120.277 102.748L123.283 91.419H140.767V91.8746H123.633L120.717 102.865Z" fill="#2F2E41"/>
<path d="M114.323 122.621H21.9951V123.076H114.323V122.621Z" fill="#2F2E41"/>
<path d="M109.036 139.402H27.129V139.858H109.036V139.402Z" fill="#2F2E41"/>
<path d="M68.4562 107.589H68.0007V157.466H68.4562V107.589Z" fill="#2F2E41"/>
<path d="M88.8498 107.575L85.5801 157.451L86.0347 157.481L89.3044 107.605L88.8498 107.575Z" fill="#2F2E41"/>
<path d="M47.617 107.574L47.1624 107.604L50.4131 157.481L50.8677 157.452L47.617 107.574Z" fill="#2F2E41"/>
<path d="M239.581 199.205H0V199.74H239.581V199.205Z" fill="#2F2E41"/>
<path d="M159.207 16.5451C159.207 16.5451 163.116 27.6702 160.71 29.3817C158.305 31.0933 168.828 45.0709 168.828 45.0709L181.457 41.6478L174.541 29.9522C174.541 29.9522 173.639 18.2566 173.639 16.5451C173.639 14.8335 159.207 16.5451 159.207 16.5451Z" fill="#A0616A"/>
<path opacity="0.1" d="M159.207 16.5451C159.207 16.5451 163.116 27.6702 160.71 29.3817C158.305 31.0933 168.828 45.0709 168.828 45.0709L181.457 41.6478L174.541 29.9522C174.541 29.9522 173.639 18.2566 173.639 16.5451C173.639 14.8335 159.207 16.5451 159.207 16.5451Z" fill="black"/>
<path d="M152.646 95.847C152.646 95.847 151.505 110.11 152.646 117.527C153.787 124.943 155.498 145.482 155.498 145.482C155.498 145.482 155.498 184.277 161.774 184.848C168.05 185.418 172.614 185.989 173.184 183.707C173.755 181.425 170.332 180.284 172.043 179.143C173.755 178.002 174.325 174.008 172.043 169.444C169.761 164.88 172.043 118.668 172.043 118.668L182.883 147.764C182.883 147.764 184.024 171.726 185.165 175.149C186.306 178.572 184.024 184.848 188.018 185.418C192.012 185.989 196.576 182.566 198.858 181.425C201.14 180.284 195.435 180.284 196.576 179.713C197.717 179.143 201.14 177.431 199.999 176.86C198.858 176.29 197.717 148.905 197.717 148.905C197.717 148.905 194.579 90.427 190.585 88.145C186.592 85.8629 184.024 89.7936 184.024 89.7936L152.646 95.847Z" fill="#2F2E41"/>
<path d="M162.915 182.566V187.13C162.915 187.13 157.781 199.537 162.915 199.537C168.05 199.537 172.044 200.822 172.044 199.111V183.707L162.915 182.566Z" fill="#2F2E41"/>
<path d="M196.576 182.558V187.122C196.576 187.122 201.711 199.528 196.576 199.528C191.441 199.528 187.448 200.814 187.448 199.103V183.699L196.576 182.558Z" fill="#2F2E41"/>
<path d="M167.194 24.8175C172.866 24.8175 177.463 20.2198 177.463 14.5482C177.463 8.8766 172.866 4.27887 167.194 4.27887C161.523 4.27887 156.925 8.8766 156.925 14.5482C156.925 20.2198 161.523 24.8175 167.194 24.8175Z" fill="#A0616A"/>
<path d="M164.056 33.6605C164.056 33.6605 166.909 42.2182 171.473 40.5067L176.037 38.7951L184.024 93.5648C184.024 93.5648 177.749 102.693 168.62 96.9879C159.492 91.2827 164.056 33.6605 164.056 33.6605Z" fill="#52CC6D"/>
<path d="M172.043 31.9489L174.611 26.529C174.611 26.529 189.73 33.6605 192.012 35.9425C194.294 38.2246 194.294 41.6477 194.294 41.6477L190.3 55.9107C190.3 55.9107 191.441 87.2891 191.441 88.4302C191.441 89.5712 195.435 95.8469 192.582 93.5648C189.73 91.2828 189.159 89.0007 186.877 92.4238C184.595 95.8469 179.46 99.8405 179.46 99.8405L172.043 31.9489Z" fill="#3F3D56"/>
<path d="M192.012 73.0262L190.3 89.0007C190.3 89.0007 180.031 98.129 182.313 98.6995C184.595 99.2701 185.736 96.988 185.736 96.988C185.736 96.988 189.73 100.982 192.012 98.6995C194.294 96.4175 199.999 74.7378 199.999 74.7378L192.012 73.0262Z" fill="#A0616A"/>
<path d="M167.413 0.0347262C165.136 -0.0466593 162.7 -0.0869177 160.781 1.1399C159.897 1.75559 159.123 2.51388 158.488 3.38372C156.619 5.74703 155.004 8.72062 155.698 11.6528L156.505 11.3383C156.505 12.121 156.331 12.8939 155.995 13.6011C156.109 13.2709 156.489 13.8047 156.387 14.1388L155.499 17.0535C156.959 16.5181 158.776 17.6022 158.998 19.1417C159.1 15.7563 159.451 11.8742 162.197 9.89185C163.582 8.89216 165.335 8.58699 167.022 8.31599C168.577 8.06598 170.208 7.82757 171.698 8.33975C173.189 8.85192 174.458 10.3759 174.12 11.915C174.807 11.6783 175.575 12.1572 175.915 12.7997C176.254 13.4422 176.272 14.2001 176.283 14.9268C177.015 15.4444 177.848 14.4165 178.147 13.5708C178.848 11.5856 179.47 9.47242 179.093 7.40132C178.715 5.33022 177.028 3.35097 174.923 3.34395C175.178 3.06328 175.314 2.69422 175.303 2.31483L173.568 2.16822C174.008 2.10585 174.413 1.89226 174.714 1.56404C174.017 2.33063 168.539 0.0749978 167.413 0.0347262Z" fill="#2F2E41"/>
<path d="M166.909 30.2374C166.909 30.2374 162.264 25.6862 160.593 25.9649C158.921 26.2437 156.639 30.2374 156.639 30.2374C156.639 30.2374 142.947 34.8015 143.517 39.3656C144.088 43.9298 150.364 66.18 150.364 66.18C150.364 66.18 155.498 92.9943 150.934 95.8469C146.37 98.6995 172.614 106.116 173.184 102.693C173.755 99.27 174.896 65.0389 173.184 59.9043C171.473 54.7696 166.909 30.2374 166.909 30.2374Z" fill="#3F3D56"/>
<path d="M186.877 39.3657H193.931C193.931 39.3657 198.858 61.0454 199.428 63.3275C199.999 65.6095 201.14 76.4494 200.569 76.4494C199.999 76.4494 188.588 74.1673 188.588 75.8789L186.877 39.3657Z" fill="#3F3D56"/>
<path d="M186.638 93.0517H159.632C156.996 80.9282 156.776 69.2148 159.632 58.0236H186.638C182.28 69.0135 182.008 80.6467 186.638 93.0517Z" fill="#F2F2F2"/>
<path d="M148.652 78.161L156.639 81.5841C156.639 81.5841 172.043 83.8662 172.043 77.5905C172.043 71.3148 156.639 74.7379 156.639 74.7379L151.504 73.0961L148.652 78.161Z" fill="#A0616A"/>
<path d="M150.364 35.9427L143.517 37.6543L138.383 67.8917C138.383 67.8917 136.671 75.8789 139.524 76.4495C142.376 77.02 150.364 81.5841 150.364 81.5841C150.364 81.5841 151.505 73.0264 153.787 73.0264L148.082 68.4622L151.505 48.4941L150.364 35.9427Z" fill="#3F3D56"/>
<path d="M53.5444 94.364H16.1099V94.8988H53.5444V94.364Z" fill="#F2F2F2"/>
<path d="M26.8054 89.551H26.2706V94.4977H26.8054V89.551Z" fill="#F2F2F2"/>
<path d="M43.1162 89.551H42.5814V94.4977H43.1162V89.551Z" fill="#F2F2F2"/>
<path d="M66.6465 15.2166H29.2119V15.7514H66.6465V15.2166Z" fill="#F2F2F2"/>
<path d="M56.4857 15.6177H55.9509V20.5645H56.4857V15.6177Z" fill="#F2F2F2"/>
<path d="M40.1749 15.6177H39.6401V20.5645H40.1749V15.6177Z" fill="#F2F2F2"/>
<path d="M104.349 67.8925H66.9139V68.4272H104.349V67.8925Z" fill="#F2F2F2"/>
<path d="M94.1876 68.2935H93.6528V73.2402H94.1876V68.2935Z" fill="#F2F2F2"/>
<path d="M77.8769 68.2935H77.3422V73.2402H77.8769V68.2935Z" fill="#F2F2F2"/>
<path d="M40.7097 67.625H3.27515V68.1598H40.7097V67.625Z" fill="#F2F2F2"/>
<path d="M30.5488 68.0261H30.014V72.9728H30.5488V68.0261Z" fill="#F2F2F2"/>
<path d="M14.238 68.0261H13.7032V72.9728H14.238V68.0261Z" fill="#F2F2F2"/>
<path d="M85.6312 40.886H48.1967V41.4208H85.6312V40.886Z" fill="#F2F2F2"/>
<path d="M58.8922 36.0731H58.3574V41.0198H58.8922V36.0731Z" fill="#F2F2F2"/>
<path d="M75.203 36.0731H74.6682V41.0198H75.203V36.0731Z" fill="#F2F2F2"/>
</g>
<defs>
<clipPath id="clip0_273_2142">
<rect width="239.581" height="200" fill="white"/>
</clipPath>
</defs>
</svg>
